<svg width="193" height="45" viewBox="0 0 193 45" fill="none" xmlns="http://www.w3.org/2000/svg">
<g clip-path="url(#clip0_433_1793)">
<path d="M44.9437 22.5C44.9437 28.6439 42.4713 34.1969 38.4822 38.251C35.4224 28.3042 29.8308 23.1571 24.995 20.4974C22.5705 19.1639 20.3368 18.4562 18.7089 18.0818C18.0606 17.9327 17.5083 17.8364 17.0782 17.7746C23.2002 17.9419 28.4262 21.5094 32.1828 25.1369C34.1641 27.05 35.7346 28.9778 36.8097 30.4274C37.3472 31.1521 37.7609 31.7572 38.04 32.1809C38.1796 32.3928 38.2855 32.5593 38.3566 32.6728C38.3921 32.7296 38.4188 32.7731 38.4367 32.8023L38.4568 32.8354L38.4618 32.8437L38.4631 32.8458L38.4634 32.8463C38.4634 32.8464 38.4635 32.8464 38.5118 32.8176L38.4635 32.8464L38.5285 32.9554L38.5656 32.834C40.1184 27.751 39.4591 23.9929 37.587 21.2184C35.7167 18.4465 32.642 16.6656 29.381 15.522C26.1194 14.3782 22.6652 13.8697 20.0275 13.647C18.7084 13.5357 17.5929 13.4957 16.8071 13.4836C16.4142 13.4776 16.1037 13.4785 15.8913 13.481C15.7851 13.4822 15.7035 13.4838 15.6483 13.4851L15.5857 13.4867L15.5697 13.4872L15.5684 13.4872C9.521 12.8084 7.89762 10.7654 7.4744 9.82258C7.43227 9.6586 7.3766 9.48195 7.32119 9.31942L7.21184 9.34167L7.26795 9.33757L7.21185 9.3417L7.21185 9.34174L7.21186 9.34184L7.21188 9.34207L7.21193 9.34276L7.21212 9.34496L7.21292 9.35263C7.21365 9.35919 7.21484 9.3686 7.21669 9.38074C7.22041 9.40501 7.2268 9.44017 7.23762 9.48514C7.25914 9.57455 7.29815 9.70267 7.36838 9.86108C13.2594 28.6685 20.1163 35.6367 25.5171 37.8939C28.2179 39.0227 30.5504 38.9713 32.2082 38.637C33.037 38.4699 33.697 38.2322 34.1502 38.036C34.3768 37.9379 34.5517 37.8501 34.6703 37.7868C34.7194 37.7605 34.7589 37.7384 34.7883 37.7215L35.6482 40.69C31.9596 43.3643 27.4163 44.9437 22.5 44.9437C10.0976 44.9437 0.05625 34.8963 0.05625 22.5C0.05625 10.1037 10.1115 0.05625 22.5 0.05625C34.8885 0.05625 44.9437 10.1037 44.9437 22.5Z" fill="#27AD5D" stroke="#BCE6CD" stroke-width="0.1125"/>
</g>
<path d="M52.344 31.5L58.311 13.977H62.307L68.031 31.5H64.683L63.468 27.72H56.961L55.719 31.5H52.344ZM57.771 25.317H62.712L60.255 17.784L57.771 25.317ZM76.2114 38.277C74.7084 38.277 73.4214 38.07 72.3504 37.656C71.2884 37.242 70.4739 36.6975 69.9069 36.0225C69.3399 35.3565 69.0564 34.632 69.0564 33.849C69.0564 32.922 69.3939 32.202 70.0689 31.689C70.7439 31.185 71.5944 30.933 72.6204 30.933L74.9424 31.797C74.0604 31.797 73.3809 31.9635 72.9039 32.2965C72.4269 32.6295 72.1884 33.093 72.1884 33.687C72.1884 34.308 72.5439 34.803 73.2549 35.172C73.9749 35.55 74.9604 35.739 76.2114 35.739C77.1204 35.739 77.9079 35.604 78.5739 35.334C79.2399 35.064 79.7529 34.713 80.1129 34.281C80.4819 33.849 80.6664 33.39 80.6664 32.904C80.6664 32.58 80.5584 32.3145 80.3424 32.1075C80.1264 31.9005 79.7934 31.797 79.3434 31.797H74.9424C74.0604 31.797 73.2549 31.6575 72.5259 31.3785C71.8059 31.0905 71.2299 30.708 70.7979 30.231C70.3749 29.745 70.1634 29.205 70.1634 28.611C70.1634 28.062 70.3164 27.5895 70.6224 27.1935C70.9284 26.7885 71.3424 26.478 71.8644 26.262C72.3954 26.046 72.9894 25.938 73.6464 25.938L74.4564 26.991C74.1954 26.991 73.9434 27.045 73.7004 27.153C73.4664 27.252 73.2729 27.4005 73.1199 27.5985C72.9669 27.7965 72.8904 28.044 72.8904 28.341C72.8904 28.701 73.0434 28.9935 73.3494 29.2185C73.6554 29.4435 74.1864 29.556 74.9424 29.556H79.3434C80.7384 29.556 81.8319 29.8125 82.6239 30.3255C83.4249 30.8385 83.8254 31.626 83.8254 32.688C83.8254 33.633 83.5149 34.5285 82.8939 35.3745C82.2729 36.2295 81.3909 36.927 80.2479 37.467C79.1139 38.007 77.7684 38.277 76.2114 38.277ZM76.3734 27.45C75.3384 27.45 74.3889 27.2565 73.5249 26.8695C72.6699 26.4735 71.9859 25.9245 71.4729 25.2225C70.9599 24.5205 70.7034 23.697 70.7034 22.752C70.7034 21.789 70.9599 20.952 71.4729 20.241C71.9859 19.53 72.6699 18.9855 73.5249 18.6075C74.3889 18.2205 75.3384 18.027 76.3734 18.027C77.3814 18.027 78.3129 18.2205 79.1679 18.6075C80.0229 18.9855 80.7114 19.53 81.2334 20.241C81.7554 20.952 82.0164 21.789 82.0164 22.752C82.0164 23.697 81.7554 24.5205 81.2334 25.2225C80.7114 25.9245 80.0229 26.4735 79.1679 26.8695C78.3129 27.2565 77.3814 27.45 76.3734 27.45ZM76.4004 25.236C77.2284 25.236 77.8494 24.9975 78.2634 24.5205C78.6774 24.0435 78.8844 23.454 78.8844 22.752C78.8844 21.996 78.6729 21.3885 78.2499 20.9295C77.8359 20.4705 77.2104 20.241 76.3734 20.241C75.5634 20.241 74.9424 20.4705 74.5104 20.9295C74.0784 21.3885 73.8624 21.996 73.8624 22.752C73.8624 23.454 74.0784 24.0435 74.5104 24.5205C74.9514 24.9975 75.5814 25.236 76.4004 25.236ZM81.0174 20.133L79.5594 19.296C79.5594 18.513 79.7394 17.829 80.0994 17.244C80.4684 16.65 80.9544 16.191 81.5574 15.867C82.1694 15.543 82.8444 15.381 83.5824 15.381L83.4204 18.432C82.6374 18.432 82.0389 18.5715 81.6249 18.8505C81.2199 19.1205 81.0174 19.548 81.0174 20.133ZM86.8772 31.5V18.351H90.0632V31.5H86.8772ZM89.2802 25.749C89.2802 24.03 89.4737 22.608 89.8607 21.483C90.2477 20.358 90.7652 19.5255 91.4132 18.9855C92.0702 18.4365 92.7992 18.162 93.6002 18.162C93.8162 18.162 94.0187 18.1755 94.2077 18.2025C94.4057 18.2295 94.5992 18.27 94.7882 18.324L94.7342 21.51C94.5002 21.456 94.2482 21.411 93.9782 21.375C93.7082 21.339 93.4652 21.321 93.2492 21.321C92.5472 21.321 91.9577 21.492 91.4807 21.834C91.0127 22.167 90.6572 22.662 90.4142 23.319C90.1802 23.976 90.0632 24.786 90.0632 25.749H89.2802ZM99.3398 16.002C98.7188 16.002 98.2328 15.84 97.8818 15.516C97.5398 15.183 97.3688 14.724 97.3688 14.139C97.3688 13.572 97.5398 13.122 97.8818 12.789C98.2328 12.447 98.7188 12.276 99.3398 12.276C99.9518 12.276 100.433 12.447 100.784 12.789C101.135 13.122 101.311 13.572 101.311 14.139C101.311 14.724 101.135 15.183 100.784 15.516C100.433 15.84 99.9518 16.002 99.3398 16.002ZM97.7468 31.5V18.351H100.933V31.5H97.7468ZM111.304 31.878C110.206 31.878 109.185 31.5945 108.24 31.0275C107.304 30.4515 106.543 29.646 105.958 28.611C105.382 27.567 105.094 26.343 105.094 24.939C105.094 23.454 105.382 22.1985 105.958 21.1725C106.543 20.1375 107.304 19.3545 108.24 18.8235C109.185 18.2925 110.206 18.027 111.304 18.027C112.159 18.027 112.911 18.1665 113.559 18.4455C114.216 18.7155 114.774 19.0845 115.233 19.5525C115.692 20.0115 116.052 20.5245 116.313 21.0915C116.574 21.6585 116.74 22.23 116.812 22.806L113.599 22.887C113.455 22.311 113.185 21.834 112.789 21.456C112.402 21.078 111.898 20.889 111.277 20.889C110.764 20.889 110.283 21.033 109.833 21.321C109.383 21.6 109.014 22.0365 108.726 22.6305C108.447 23.2245 108.307 23.994 108.307 24.939C108.307 25.839 108.438 26.5905 108.699 27.1935C108.969 27.7875 109.329 28.2375 109.779 28.5435C110.229 28.8405 110.728 28.989 111.277 28.989C112.087 28.989 112.677 28.7955 113.046 28.4085C113.415 28.0125 113.599 27.486 113.599 26.829H116.812C116.812 27.756 116.601 28.602 116.178 29.367C115.755 30.132 115.134 30.744 114.315 31.203C113.496 31.653 112.492 31.878 111.304 31.878ZM125.595 31.878C124.497 31.878 123.476 31.5945 122.531 31.0275C121.595 30.4515 120.834 29.646 120.249 28.611C119.673 27.567 119.385 26.343 119.385 24.939C119.385 23.454 119.673 22.1985 120.249 21.1725C120.834 20.1375 121.595 19.3545 122.531 18.8235C123.476 18.2925 124.497 18.027 125.595 18.027C126.45 18.027 127.202 18.1665 127.85 18.4455C128.507 18.7155 129.065 19.0845 129.524 19.5525C129.983 20.0115 130.343 20.5245 130.604 21.0915C130.865 21.6585 131.031 22.23 131.103 22.806L127.89 22.887C127.746 22.311 127.476 21.834 127.08 21.456C126.693 21.078 126.189 20.889 125.568 20.889C125.055 20.889 124.574 21.033 124.124 21.321C123.674 21.6 123.305 22.0365 123.017 22.6305C122.738 23.2245 122.598 23.994 122.598 24.939C122.598 25.839 122.729 26.5905 122.99 27.1935C123.26 27.7875 123.62 28.2375 124.07 28.5435C124.52 28.8405 125.019 28.989 125.568 28.989C126.378 28.989 126.968 28.7955 127.337 28.4085C127.706 28.0125 127.89 27.486 127.89 26.829H131.103C131.103 27.756 130.892 28.602 130.469 29.367C130.046 30.132 129.425 30.744 128.606 31.203C127.787 31.653 126.783 31.878 125.595 31.878ZM140.075 31.878C138.878 31.878 137.794 31.6215 136.822 31.1085C135.859 30.5955 135.094 29.8305 134.527 28.8135C133.96 27.7875 133.676 26.505 133.676 24.966C133.676 23.4 133.96 22.104 134.527 21.078C135.094 20.052 135.859 19.287 136.822 18.783C137.794 18.279 138.878 18.027 140.075 18.027C141.254 18.027 142.321 18.279 143.275 18.783C144.238 19.287 145.003 20.052 145.57 21.078C146.137 22.104 146.42 23.4 146.42 24.966C146.42 26.505 146.137 27.7875 145.57 28.8135C145.003 29.8305 144.238 30.5955 143.275 31.1085C142.321 31.6215 141.254 31.878 140.075 31.878ZM139.967 29.097C140.597 29.097 141.155 28.944 141.641 28.638C142.136 28.323 142.523 27.8595 142.802 27.2475C143.09 26.6355 143.234 25.875 143.234 24.966C143.234 23.58 142.96 22.536 142.411 21.834C141.871 21.132 141.128 20.781 140.183 20.781C139.544 20.781 138.977 20.9385 138.482 21.2535C137.987 21.5595 137.596 22.023 137.308 22.644C137.029 23.265 136.889 24.039 136.889 24.966C136.889 26.334 137.164 27.3645 137.713 28.0575C138.271 28.7505 139.022 29.097 139.967 29.097ZM156.986 13.977H160.469L168.434 26.478H168.191V13.977H171.377V31.5H168.137L159.659 18.243H160.172V31.5H156.986V13.977ZM182.793 31.878C181.362 31.878 180.07 31.5 178.918 30.744C177.766 29.988 176.848 28.935 176.164 27.585C175.489 26.226 175.152 24.642 175.152 22.833C175.152 21.402 175.359 20.1195 175.773 18.9855C176.196 17.8515 176.781 16.884 177.528 16.083C178.275 15.282 179.152 14.6745 180.16 14.2605C181.168 13.8375 182.262 13.626 183.441 13.626C185.079 13.626 186.451 13.9815 187.558 14.6925C188.674 15.4035 189.543 16.524 190.164 18.054L186.897 18.81C186.438 18.063 185.907 17.496 185.304 17.109C184.71 16.713 184.035 16.515 183.279 16.515C182.415 16.515 181.627 16.7715 180.916 17.2845C180.205 17.7885 179.638 18.513 179.215 19.458C178.792 20.403 178.581 21.528 178.581 22.833C178.581 24.057 178.765 25.128 179.134 26.046C179.512 26.964 180.039 27.6795 180.714 28.1925C181.389 28.7055 182.172 28.962 183.063 28.962C183.819 28.962 184.494 28.7955 185.088 28.4625C185.691 28.1205 186.163 27.6345 186.505 27.0045C186.856 26.3745 187.032 25.614 187.032 24.723H187.734C187.734 26.181 187.558 27.4455 187.207 28.5165C186.865 29.5875 186.33 30.4155 185.601 31.0005C184.872 31.5855 183.936 31.878 182.793 31.878ZM187.491 31.5L187.032 27.639V24.615L183.09 24.534V22.509H190.083V31.5H187.491Z" fill="#171617"/>
<defs>
<clipPath id="clip0_433_1793">
<rect width="45" height="45" fill="white"/>
</clipPath>
</defs>
</svg>
