<svg width="462" height="57" viewBox="0 0 462 57" fill="none" xmlns="http://www.w3.org/2000/svg">
<path fill-rule="evenodd" clip-rule="evenodd" d="M98.0625 56.4617C99.7095 56.0974 101.382 55.7231 103.083 55.3385C104.754 54.9606 110.456 53.6655 111.237 53.4884C155.524 43.4527 183.238 39.6847 231 39.6847C278.384 39.6847 301.869 43.101 344.62 53.4655C349.029 54.5345 353.243 55.532 357.307 56.4617H386.026C374.443 54.4189 362.318 51.7332 348.046 48.2732C304.297 37.6665 279.727 34.0924 231 34.0924C181.979 34.0924 153.241 37.9997 108.006 48.2503C107.219 48.4286 101.521 49.7228 99.8576 50.099C88.4406 52.6809 78.3568 54.7824 68.8383 56.4617H98.0625ZM98.0625 0.538574C61.4944 8.62491 37.5937 11.7232 0.333008 11.7232L0.333008 6.13088C26.8316 6.13088 46.2421 4.52488 68.8383 0.538574L98.0625 0.538574ZM357.307 0.538574C393.567 8.83318 417.85 11.7232 461.666 11.7232V6.13088C430.101 6.13088 409.141 4.61483 386.026 0.538574L357.307 0.538574ZM0.333008 39.6847C39.2718 39.6847 63.6202 36.3011 103.083 27.377C104.754 26.999 110.456 25.704 111.237 25.5269C155.524 15.4912 183.238 11.7232 231 11.7232C278.384 11.7232 301.869 15.1394 344.62 25.504C388.369 36.1106 412.939 39.6847 461.666 39.6847V34.0924C414.282 34.0924 390.797 30.6762 348.046 20.3116C304.297 9.70501 279.727 6.13088 231 6.13088C181.979 6.13088 153.241 10.0382 108.006 20.2887C107.219 20.4671 101.521 21.7613 99.8576 22.1375C61.3375 30.8484 37.994 34.0924 0.333008 34.0924L0.333008 39.6847Z" fill="#E9F7EF" fill-opacity="0.04"/>
</svg>
