<svg width="171" height="40" viewBox="0 0 171 40" fill="none" xmlns="http://www.w3.org/2000/svg">
<g clip-path="url(#clip0_412_265)">
<path d="M34.2064 34.0009C31.4866 25.1593 26.5163 20.5841 22.2178 18.2199C20.0626 17.0346 18.0772 16.4055 16.6302 16.0727C16.0539 15.9402 15.5629 15.8546 15.1806 15.7996C20.6224 15.9484 25.2677 19.1195 28.607 22.3439C30.3681 24.0445 31.7641 25.7581 32.7197 27.0466C33.1975 27.6908 33.5652 28.2286 33.8133 28.6053C33.9374 28.7936 34.0316 28.9416 34.0947 29.0425C34.1263 29.093 34.1501 29.1316 34.166 29.1576L34.1838 29.187L34.1883 29.1944L34.1894 29.1963L34.1897 29.1967C34.1897 29.1968 34.1897 29.1968 34.2327 29.1712L34.1897 29.1968L34.2475 29.2937L34.2805 29.1858C35.6608 24.6676 35.0748 21.327 33.4107 18.8608C31.7482 16.3969 29.0151 14.8139 26.1165 13.7973C23.2173 12.7806 20.1468 12.3286 17.8022 12.1307C16.6297 12.0317 15.6382 11.9962 14.9397 11.9855C14.5904 11.9801 14.3144 11.9809 14.1256 11.9831C14.0312 11.9841 13.9586 11.9856 13.9096 11.9867L13.8539 11.9882L13.8398 11.9886L13.8386 11.9886C8.46313 11.3852 7.02011 9.56923 6.64391 8.73119C6.60646 8.58542 6.55698 8.4284 6.50772 8.28392L6.41053 8.3037L6.4604 8.30006L6.41053 8.30373L6.41053 8.30377L6.41054 8.30385L6.41056 8.30406L6.4106 8.30467L6.41078 8.30663L6.41148 8.31345C6.41213 8.31928 6.41319 8.32765 6.41484 8.33844C6.41814 8.36001 6.42382 8.39126 6.43344 8.43124C6.45234 8.50974 6.48641 8.62183 6.54741 8.76029L6.54739 8.7603L6.54969 8.76546C11.7861 25.4831 17.8811 31.6771 22.6818 33.6835C25.0826 34.6868 27.1559 34.6412 28.6295 34.344C29.3662 34.1955 29.9529 33.9842 30.3557 33.8098C30.5571 33.7225 30.7127 33.6446 30.818 33.5882C30.8617 33.5649 30.8968 33.5453 30.9229 33.5302L31.6873 36.1689C28.4085 38.5461 24.37 39.95 20 39.95C8.97564 39.95 0.05 31.019 0.05 20C0.05 8.98104 8.988 0.05 20 0.05C31.012 0.05 39.95 8.98104 39.95 20C39.95 25.4612 37.7522 30.3972 34.2064 34.0009Z" fill="#27AD5D" stroke="#BCE6CD" stroke-width="0.1"/>
</g>
<path d="M46.528 28L51.832 12.424H55.384L60.472 28H57.496L56.416 24.64H50.632L49.528 28H46.528ZM51.352 22.504H55.744L53.56 15.808L51.352 22.504ZM67.7434 34.024C66.4074 34.024 65.2634 33.84 64.3114 33.472C63.3674 33.104 62.6434 32.62 62.1394 32.02C61.6354 31.428 61.3834 30.784 61.3834 30.088C61.3834 29.264 61.6834 28.624 62.2834 28.168C62.8834 27.72 63.6394 27.496 64.5514 27.496L66.6154 28.264C65.8314 28.264 65.2274 28.412 64.8034 28.708C64.3794 29.004 64.1674 29.416 64.1674 29.944C64.1674 30.496 64.4834 30.936 65.1154 31.264C65.7554 31.6 66.6314 31.768 67.7434 31.768C68.5514 31.768 69.2514 31.648 69.8434 31.408C70.4354 31.168 70.8914 30.856 71.2114 30.472C71.5394 30.088 71.7034 29.68 71.7034 29.248C71.7034 28.96 71.6074 28.724 71.4154 28.54C71.2234 28.356 70.9274 28.264 70.5274 28.264H66.6154C65.8314 28.264 65.1154 28.14 64.4674 27.892C63.8274 27.636 63.3154 27.296 62.9314 26.872C62.5554 26.44 62.3674 25.96 62.3674 25.432C62.3674 24.944 62.5034 24.524 62.7754 24.172C63.0474 23.812 63.4154 23.536 63.8794 23.344C64.3514 23.152 64.8794 23.056 65.4634 23.056L66.1834 23.992C65.9514 23.992 65.7274 24.04 65.5114 24.136C65.3034 24.224 65.1314 24.356 64.9954 24.532C64.8594 24.708 64.7914 24.928 64.7914 25.192C64.7914 25.512 64.9274 25.772 65.1994 25.972C65.4714 26.172 65.9434 26.272 66.6154 26.272H70.5274C71.7674 26.272 72.7394 26.5 73.4434 26.956C74.1554 27.412 74.5114 28.112 74.5114 29.056C74.5114 29.896 74.2354 30.692 73.6834 31.444C73.1314 32.204 72.3474 32.824 71.3314 33.304C70.3234 33.784 69.1274 34.024 67.7434 34.024ZM67.8874 24.4C66.9674 24.4 66.1234 24.228 65.3554 23.884C64.5954 23.532 63.9874 23.044 63.5314 22.42C63.0754 21.796 62.8474 21.064 62.8474 20.224C62.8474 19.368 63.0754 18.624 63.5314 17.992C63.9874 17.36 64.5954 16.876 65.3554 16.54C66.1234 16.196 66.9674 16.024 67.8874 16.024C68.7834 16.024 69.6114 16.196 70.3714 16.54C71.1314 16.876 71.7434 17.36 72.2074 17.992C72.6714 18.624 72.9034 19.368 72.9034 20.224C72.9034 21.064 72.6714 21.796 72.2074 22.42C71.7434 23.044 71.1314 23.532 70.3714 23.884C69.6114 24.228 68.7834 24.4 67.8874 24.4ZM67.9114 22.432C68.6474 22.432 69.1994 22.22 69.5674 21.796C69.9354 21.372 70.1194 20.848 70.1194 20.224C70.1194 19.552 69.9314 19.012 69.5554 18.604C69.1874 18.196 68.6314 17.992 67.8874 17.992C67.1674 17.992 66.6154 18.196 66.2314 18.604C65.8474 19.012 65.6554 19.552 65.6554 20.224C65.6554 20.848 65.8474 21.372 66.2314 21.796C66.6234 22.22 67.1834 22.432 67.9114 22.432ZM72.0154 17.896L70.7194 17.152C70.7194 16.456 70.8794 15.848 71.1994 15.328C71.5274 14.8 71.9594 14.392 72.4954 14.104C73.0394 13.816 73.6394 13.672 74.2954 13.672L74.1514 16.384C73.4554 16.384 72.9234 16.508 72.5554 16.756C72.1954 16.996 72.0154 17.376 72.0154 17.896ZM77.2242 28V16.312H80.0562V28H77.2242ZM79.3602 22.888C79.3602 21.36 79.5322 20.096 79.8762 19.096C80.2202 18.096 80.6802 17.356 81.2562 16.876C81.8402 16.388 82.4882 16.144 83.2002 16.144C83.3922 16.144 83.5722 16.156 83.7402 16.18C83.9162 16.204 84.0882 16.24 84.2562 16.288L84.2082 19.12C84.0002 19.072 83.7762 19.032 83.5362 19C83.2962 18.968 83.0802 18.952 82.8882 18.952C82.2642 18.952 81.7402 19.104 81.3162 19.408C80.9002 19.704 80.5842 20.144 80.3682 20.728C80.1602 21.312 80.0562 22.032 80.0562 22.888H79.3602ZM88.3021 14.224C87.7501 14.224 87.3181 14.08 87.0061 13.792C86.7021 13.496 86.5501 13.088 86.5501 12.568C86.5501 12.064 86.7021 11.664 87.0061 11.368C87.3181 11.064 87.7501 10.912 88.3021 10.912C88.8461 10.912 89.2741 11.064 89.5861 11.368C89.8981 11.664 90.0541 12.064 90.0541 12.568C90.0541 13.088 89.8981 13.496 89.5861 13.792C89.2741 14.08 88.8461 14.224 88.3021 14.224ZM86.8861 28V16.312H89.7181V28H86.8861ZM98.9371 28.336C97.9611 28.336 97.0531 28.084 96.2131 27.58C95.3811 27.068 94.7051 26.352 94.1851 25.432C93.6731 24.504 93.4171 23.416 93.4171 22.168C93.4171 20.848 93.6731 19.732 94.1851 18.82C94.7051 17.9 95.3811 17.204 96.2131 16.732C97.0531 16.26 97.9611 16.024 98.9371 16.024C99.6971 16.024 100.365 16.148 100.941 16.396C101.525 16.636 102.021 16.964 102.429 17.38C102.837 17.788 103.157 18.244 103.389 18.748C103.621 19.252 103.769 19.76 103.833 20.272L100.977 20.344C100.849 19.832 100.609 19.408 100.257 19.072C99.9131 18.736 99.4651 18.568 98.9131 18.568C98.4571 18.568 98.0291 18.696 97.6291 18.952C97.2291 19.2 96.9011 19.588 96.6451 20.116C96.3971 20.644 96.2731 21.328 96.2731 22.168C96.2731 22.968 96.3891 23.636 96.6211 24.172C96.8611 24.7 97.1811 25.1 97.5811 25.372C97.9811 25.636 98.4251 25.768 98.9131 25.768C99.6331 25.768 100.157 25.596 100.485 25.252C100.813 24.9 100.977 24.432 100.977 23.848H103.833C103.833 24.672 103.645 25.424 103.269 26.104C102.893 26.784 102.341 27.328 101.613 27.736C100.885 28.136 99.9931 28.336 98.9371 28.336ZM111.64 28.336C110.664 28.336 109.756 28.084 108.916 27.58C108.084 27.068 107.408 26.352 106.888 25.432C106.376 24.504 106.12 23.416 106.12 22.168C106.12 20.848 106.376 19.732 106.888 18.82C107.408 17.9 108.084 17.204 108.916 16.732C109.756 16.26 110.664 16.024 111.64 16.024C112.4 16.024 113.068 16.148 113.644 16.396C114.228 16.636 114.724 16.964 115.132 17.38C115.54 17.788 115.86 18.244 116.092 18.748C116.324 19.252 116.472 19.76 116.536 20.272L113.68 20.344C113.552 19.832 113.312 19.408 112.96 19.072C112.616 18.736 112.168 18.568 111.616 18.568C111.16 18.568 110.732 18.696 110.332 18.952C109.932 19.2 109.604 19.588 109.348 20.116C109.1 20.644 108.976 21.328 108.976 22.168C108.976 22.968 109.092 23.636 109.324 24.172C109.564 24.7 109.884 25.1 110.284 25.372C110.684 25.636 111.128 25.768 111.616 25.768C112.336 25.768 112.86 25.596 113.188 25.252C113.516 24.9 113.68 24.432 113.68 23.848H116.536C116.536 24.672 116.348 25.424 115.972 26.104C115.596 26.784 115.044 27.328 114.316 27.736C113.588 28.136 112.696 28.336 111.64 28.336ZM124.511 28.336C123.447 28.336 122.483 28.108 121.619 27.652C120.763 27.196 120.083 26.516 119.579 25.612C119.075 24.7 118.823 23.56 118.823 22.192C118.823 20.8 119.075 19.648 119.579 18.736C120.083 17.824 120.763 17.144 121.619 16.696C122.483 16.248 123.447 16.024 124.511 16.024C125.559 16.024 126.507 16.248 127.355 16.696C128.211 17.144 128.891 17.824 129.395 18.736C129.899 19.648 130.151 20.8 130.151 22.192C130.151 23.56 129.899 24.7 129.395 25.612C128.891 26.516 128.211 27.196 127.355 27.652C126.507 28.108 125.559 28.336 124.511 28.336ZM124.415 25.864C124.975 25.864 125.471 25.728 125.903 25.456C126.343 25.176 126.687 24.764 126.935 24.22C127.191 23.676 127.319 23 127.319 22.192C127.319 20.96 127.075 20.032 126.587 19.408C126.107 18.784 125.447 18.472 124.607 18.472C124.039 18.472 123.535 18.612 123.095 18.892C122.655 19.164 122.307 19.576 122.051 20.128C121.803 20.68 121.679 21.368 121.679 22.192C121.679 23.408 121.923 24.324 122.411 24.94C122.907 25.556 123.575 25.864 124.415 25.864ZM139.543 12.424H142.639L149.719 23.536H149.503V12.424H152.335V28H149.455L141.919 16.216H142.375V28H139.543V12.424ZM162.483 28.336C161.211 28.336 160.063 28 159.039 27.328C158.015 26.656 157.199 25.72 156.591 24.52C155.991 23.312 155.691 21.904 155.691 20.296C155.691 19.024 155.875 17.884 156.243 16.876C156.619 15.868 157.139 15.008 157.803 14.296C158.467 13.584 159.247 13.044 160.143 12.676C161.039 12.3 162.011 12.112 163.059 12.112C164.515 12.112 165.735 12.428 166.719 13.06C167.711 13.692 168.483 14.688 169.035 16.048L166.131 16.72C165.723 16.056 165.251 15.552 164.715 15.208C164.187 14.856 163.587 14.68 162.915 14.68C162.147 14.68 161.447 14.908 160.815 15.364C160.183 15.812 159.679 16.456 159.303 17.296C158.927 18.136 158.739 19.136 158.739 20.296C158.739 21.384 158.903 22.336 159.231 23.152C159.567 23.968 160.035 24.604 160.635 25.06C161.235 25.516 161.931 25.744 162.723 25.744C163.395 25.744 163.995 25.596 164.523 25.3C165.059 24.996 165.479 24.564 165.783 24.004C166.095 23.444 166.251 22.768 166.251 21.976H166.875C166.875 23.272 166.719 24.396 166.407 25.348C166.103 26.3 165.627 27.036 164.979 27.556C164.331 28.076 163.499 28.336 162.483 28.336ZM166.659 28L166.251 24.568V21.88L162.747 21.808V20.008H168.963V28H166.659Z" fill="#E9F7EF"/>
<defs>
<clipPath id="clip0_412_265">
<rect width="40" height="40" fill="white"/>
</clipPath>
</defs>
</svg>
